<svg height="512pt" viewBox="0 0 512 512.001" width="512pt" xmlns="http://www.w3.org/2000/svg"><path d="m15 376.5c0 22.09375 18.074219 40.167969 40.167969 40.167969h401.667969c22.089843 0 40.164062-18.074219 40.164062-40.167969v-321.332031c0-22.09375-18.074219-40.167969-40.164062-40.167969h-401.667969c-22.09375 0-40.167969 18.074219-40.167969 40.167969zm0 0" fill="#fef4f5"/><path d="m456.835938 15h-200.835938v401.667969h200.835938c22.089843 0 40.164062-18.074219 40.164062-40.167969v-321.332031c0-22.09375-18.074219-40.167969-40.164062-40.167969zm0 0" fill="#d5eded"/><path d="m456.835938 0h-401.667969c-30.421875 0-55.167969 24.746094-55.167969 55.167969v321.332031c0 30.417969 24.746094 55.167969 55.167969 55.167969h84.285156l-54.726563 54.726562c-5.855468 5.855469-5.855468 15.355469 0 21.210938 2.929688 2.929687 6.769532 4.394531 10.605469 4.394531 3.839844 0 7.679688-1.464844 10.609375-4.394531l75.9375-75.9375h148.242188l75.9375 75.9375c2.929687 2.929687 6.769531 4.394531 10.605468 4.394531 3.839844 0 7.679688-1.464844 10.609376-4.394531 5.855468-5.855469 5.855468-15.351563 0-21.210938l-54.730469-54.726562h84.289062c30.417969 0 55.164063-24.75 55.164063-55.167969v-321.332031c.003906-30.421875-24.742188-55.167969-55.160156-55.167969zm25.164062 376.5c0 13.878906-11.289062 25.167969-25.164062 25.167969h-401.667969c-13.878907 0-25.167969-11.289063-25.167969-25.167969v-321.332031c0-13.878907 11.289062-25.167969 25.167969-25.167969h401.667969c13.875 0 25.164062 11.289062 25.164062 25.167969zm0 0" fill="#005183"/><path d="m359.902344 202.84375-160.667969-92.761719c-4.644531-2.679687-10.359375-2.679687-15 0-4.640625 2.679688-7.5 7.632813-7.5 12.992188v185.519531c0 5.359375 2.859375 10.308594 7.5 12.992188 2.320313 1.339843 4.910156 2.007812 7.5 2.007812s5.179687-.667969 7.5-2.007812l160.667969-92.765626c4.640625-2.679687 7.5-7.628906 7.5-12.988281s-2.859375-10.3125-7.5-12.988281zm0 0" fill="#ff4949"/><path d="m456.835938 0h-200.835938v30h200.835938c13.875 0 25.164062 11.289062 25.164062 25.167969v321.332031c0 13.878906-11.289062 25.167969-25.164062 25.167969h-200.835938v30h74.121094l75.9375 75.9375c2.929687 2.929687 6.769531 4.394531 10.609375 4.394531 3.839843 0 7.675781-1.464844 10.605469-4.394531 5.859374-5.855469 5.859374-15.355469 0-21.210938l-54.726563-54.730469h84.285156c30.421875 0 55.167969-24.746093 55.167969-55.164062v-321.332031c0-30.421875-24.746094-55.167969-55.164062-55.167969zm0 0" fill="#011135"/><path d="m359.902344 202.84375-103.902344-59.988281v145.953125l103.902344-59.984375c4.640625-2.679688 7.5-7.632813 7.5-12.992188s-2.859375-10.3125-7.5-12.988281zm0 0" fill="#e80048"/></svg>